<svg width="215" height="595" viewBox="0 0 215 595" fill="none" xmlns="http://www.w3.org/2000/svg">
<path d="M122.25 14.9751C122.25 6.96697 115.758 0.475098 107.75 0.475098C99.7419 0.475098 93.25 6.96697 93.25 14.9751L122.25 14.9751ZM97.497 590.285C103.16 595.948 112.34 595.948 118.003 590.285L210.28 498.008C215.943 492.345 215.943 483.165 210.28 477.502C204.618 471.839 195.437 471.839 189.774 477.502L107.75 559.526L25.7256 477.502C20.063 471.839 10.8821 471.839 5.21952 477.502C-0.443086 483.165 -0.443086 492.345 5.21952 498.008L97.497 590.285ZM93.25 14.9751L93.25 580.032H122.25L122.25 14.9751L93.25 14.9751Z" fill="url(#paint0_linear_573_15)"/>
<defs>
<linearGradient id="paint0_linear_573_15" x1="107.25" y1="14.9751" x2="107.25" y2="580.032" gradientUnits="userSpaceOnUse">
<stop stop-color="#B84480"/>
<stop offset="1" stop-color="#FAA819"/>
</linearGradient>
</defs>
</svg>
