<svg width="53" height="48" viewBox="0 0 53 48" fill="none" xmlns="http://www.w3.org/2000/svg">
<g opacity="0.5">
<path d="M14.3169 32.2704L6.95032 27.9169L14.8511 24.631L14.3169 32.2704Z" stroke="white" stroke-width="2"/>
<path d="M15.0596 21.6511L7.69299 17.2976L15.5938 14.0118L15.0596 21.6511Z" stroke="white" stroke-width="2"/>
<path d="M26.0501 17.0841L18.6835 12.7306L26.5843 9.44474L26.0501 17.0841Z" stroke="white" stroke-width="2"/>
<path d="M36.2979 23.1362L28.9313 18.7827L36.8321 15.4969L36.2979 23.1362Z" stroke="white" stroke-width="2"/>
<path d="M46.5459 29.1885L39.1793 24.835L47.0801 21.5491L46.5459 29.1885Z" stroke="white" stroke-width="2"/>
<path d="M35.5555 33.7555L28.1888 29.402L36.0897 26.1161L35.5555 33.7555Z" stroke="white" stroke-width="2"/>
<path d="M24.565 38.3225L17.1984 33.969L25.0992 30.6831L24.565 38.3225Z" stroke="white" stroke-width="2"/>
<path d="M34.8128 44.3748L27.4462 40.0213L35.347 36.7354L34.8128 44.3748Z" stroke="white" stroke-width="2"/>
<path d="M6.43746 18.707L13.8041 23.0605L5.90327 26.3464L6.43746 18.707Z" stroke="white" stroke-width="2"/>
<path d="M16.6855 24.7593L24.0521 29.1128L16.1513 32.3986L16.6855 24.7593Z" stroke="white" stroke-width="2"/>
<path d="M26.9333 30.8114L34.2999 35.1649L26.3991 38.4508L26.9333 30.8114Z" stroke="white" stroke-width="2"/>
<path d="M17.4279 14.14L24.7946 18.4935L16.8937 21.7794L17.4279 14.14Z" stroke="white" stroke-width="2"/>
<path d="M17.7283 2.67856L26.6519 7.95218L17.0812 11.9326L17.7283 2.67856Z" stroke="#292929"/>
<path d="M18.1706 3.52076L25.5372 7.87424L17.6364 11.1601L18.1706 3.52076Z" stroke="white" stroke-width="2"/>
<path d="M28.4184 9.573L35.785 13.9265L27.8842 17.2124L28.4184 9.573Z" stroke="white" stroke-width="2"/>
<path d="M37.9238 26.2444L45.2904 30.5979L37.3896 33.8838L37.9238 26.2444Z" stroke="white" stroke-width="2"/>
<path d="M38.6665 15.6251L46.0331 19.9786L38.1323 23.2645L38.6665 15.6251Z" stroke="white" stroke-width="2"/>
</g>
</svg>
