<svg width="90" height="90" viewBox="0 0 90 90" fill="none" xmlns="http://www.w3.org/2000/svg">
<path d="M45.9 10.8001C39.5244 10.8001 33.4247 12.5038 28.0301 15.7114L40.5879 22.4544C46.2363 25.4874 50.235 30.6774 51.7992 36.8298L52.3512 37.6595L58.4297 46.7755L59.6672 48.6352C62.9846 48.7684 65.5033 51.1917 66.5473 55.3641C68.0269 61.2807 64.4385 65.7691 60.5883 67.9993C57.9693 69.7129 52.065 71.1001 46.8 71.1001C38.3166 71.1001 30.1621 67.7749 25.5199 62.4235C22.2763 58.6831 20.9248 54.1705 21.6106 49.3735C21.616 49.3339 21.6367 49.3023 21.6457 49.2645C21.6619 49.2033 21.682 49.1463 21.709 49.0923C21.7342 49.0455 21.7628 49.0054 21.7934 48.9622C21.833 48.91 21.8731 48.8648 21.9235 48.8216C21.9595 48.791 21.9999 48.7676 22.0395 48.7442C22.0971 48.7082 22.1557 48.6779 22.2223 48.6563C22.2709 48.6401 22.3213 48.6337 22.3735 48.6247C22.4185 48.6193 22.455 48.6001 22.5 48.6001C22.5234 48.6001 22.5399 48.6123 22.5633 48.6141C22.5849 48.6159 22.605 48.607 22.6266 48.6106C22.6662 48.616 22.7013 48.6385 22.7391 48.6493C22.7985 48.6655 22.8539 48.682 22.9079 48.709C22.9601 48.736 23.0035 48.768 23.0485 48.804C23.0935 48.84 23.1372 48.875 23.175 48.92C23.2128 48.9632 23.2412 49.0102 23.27 49.0606C23.2988 49.1092 23.3258 49.1578 23.3438 49.2118C23.3636 49.2694 23.3718 49.3299 23.379 49.3911C23.3808 49.4271 23.4 49.4604 23.4 49.5C23.4 52.0218 24.1598 53.9572 25.7204 55.4098C28.5482 58.0432 34.0972 59.094 42.2368 58.5036C46.357 58.2102 49.6332 57.4634 52.2036 56.243C52.2018 56.1962 52.2036 56.1109 52.2036 56.0461L50.3614 54.8157L42.2754 49.4297L41.959 49.4016C35.2576 48.8418 29.1897 45.3731 25.3125 39.8813L16.2703 27.0739C12.6829 32.6935 10.8 39.1464 10.8 45.9C10.8 65.2536 26.5464 81 45.9 81C65.2536 81 81 65.2536 81 45.9C81 26.5464 65.2536 10.8001 45.9 10.8001ZM10.6524 10.8141C10.4582 10.8463 10.276 10.9415 10.1356 11.0954C9.92856 11.324 9.90716 11.6248 9.97736 11.911L28.2516 37.8036C31.1262 41.877 35.44 44.6024 40.282 45.5204L40.2855 45.5028C40.4079 43.2744 41.2106 41.1534 42.5426 39.5298C43.88 37.899 45.7129 36.7762 47.8477 36.2848L47.8934 36.2743C46.3526 31.7347 43.1883 27.9367 38.8863 25.6255L11.2324 10.9126C11.0497 10.8136 10.8465 10.782 10.6524 10.8141ZM49.2961 39.6563L48.6914 39.797C47.3198 40.1119 46.1974 40.789 45.3586 41.8114C44.5036 42.8518 43.9912 44.2344 43.9102 45.7032L43.882 46.2165L52.2949 51.8204C53.0221 50.5478 54.0895 49.5013 55.3711 48.7759L49.2961 39.6563ZM59.3403 51.3071C59.2071 51.3071 59.0728 51.3121 58.936 51.3247C57.082 51.5083 55.4353 52.9352 55.0231 54.7208C54.6019 56.5514 55.2116 58.3469 56.6192 59.4071C58.331 60.6959 58.5548 62.5977 58.5422 64.4661L58.5317 66.1853L59.952 65.215C61.563 64.1133 65.1737 61.0112 63.9281 56.0216C63.1667 52.9634 61.5381 51.3071 59.3403 51.3071Z" fill="#B84480"/>
</svg>
