<svg width="90" height="90" viewBox="0 0 90 90" fill="none" xmlns="http://www.w3.org/2000/svg">
<path d="M73.8001 3.6001C66.8521 3.6001 61.2001 9.2521 61.2001 16.2001C61.2001 19.5225 62.5018 22.5389 64.6103 24.7923L49.5458 43.2001H28.656C27.7778 37.1043 22.5353 32.4001 16.2001 32.4001C9.2521 32.4001 3.6001 38.0521 3.6001 45.0001C3.6001 51.9481 9.2521 57.6001 16.2001 57.6001C22.5353 57.6001 27.7778 52.8959 28.656 46.8001H49.5036L63.9599 65.9497C62.236 68.1054 61.2001 70.8315 61.2001 73.8001C61.2001 80.7481 66.8521 86.4001 73.8001 86.4001C80.7481 86.4001 86.4001 80.7481 86.4001 73.8001C86.4001 66.8521 80.7481 61.2001 73.8001 61.2001C71.1235 61.2001 68.6465 62.0462 66.6036 63.4747L52.6888 45.0458L67.4157 27.0423C69.291 28.151 71.4681 28.8001 73.8001 28.8001C80.7481 28.8001 86.4001 23.1481 86.4001 16.2001C86.4001 9.2521 80.7481 3.6001 73.8001 3.6001Z" fill="#B84480"/>
</svg>
